<mxfile host="Electron" agent="Mozilla/5.0 (X11; Linux x86_64) AppleWebKit/537.36 (KHTML, like Gecko) draw.io/26.0.4 Chrome/128.0.6613.186 Electron/32.2.5 Safari/537.36" version="26.0.4">
  <diagram name="Page-1" id="fVbmb-rt_A3EkcJ44fk_">
    <mxGraphModel dx="1114" dy="1198" grid="1" gridSize="10" guides="1" tooltips="1" connect="1" arrows="1" fold="1" page="1" pageScale="1" pageWidth="850" pageHeight="1100" math="0" shadow="0">
      <root>
        <mxCell id="0" />
        <mxCell id="1" parent="0" />
        <mxCell id="FGUUb8OoEkp6xxlH4yim-2" style="edgeStyle=orthogonalEdgeStyle;rounded=0;orthogonalLoop=1;jettySize=auto;html=1;" edge="1" parent="1" source="FGUUb8OoEkp6xxlH4yim-6" target="FGUUb8OoEkp6xxlH4yim-5">
          <mxGeometry relative="1" as="geometry">
            <mxPoint x="287.89330047256203" y="479" as="sourcePoint" />
            <mxPoint x="520" y="479" as="targetPoint" />
          </mxGeometry>
        </mxCell>
        <mxCell id="FGUUb8OoEkp6xxlH4yim-5" value="SNS Topic with Email Notification" style="sketch=0;outlineConnect=0;fontColor=#232F3E;gradientColor=none;fillColor=#E7157B;strokeColor=none;dashed=0;verticalLabelPosition=bottom;verticalAlign=top;align=center;html=1;fontSize=12;fontStyle=0;aspect=fixed;pointerEvents=1;shape=mxgraph.aws4.email_notification;" vertex="1" parent="1">
          <mxGeometry x="520" y="440" width="78" height="78" as="geometry" />
        </mxCell>
        <mxCell id="FGUUb8OoEkp6xxlH4yim-6" value="IAM Root User Sign in Event" style="sketch=0;outlineConnect=0;fontColor=#232F3E;gradientColor=none;fillColor=#E7157B;strokeColor=none;dashed=0;verticalLabelPosition=bottom;verticalAlign=top;align=center;html=1;fontSize=12;fontStyle=0;aspect=fixed;pointerEvents=1;shape=mxgraph.aws4.event_event_based;" vertex="1" parent="1">
          <mxGeometry x="210" y="440" width="78" height="78" as="geometry" />
        </mxCell>
      </root>
    </mxGraphModel>
  </diagram>
</mxfile>
